<svg width="1786" height="3622" viewBox="0 0 1786 3622" fill="none" xmlns="http://www.w3.org/2000/svg">
<path d="M360.667 30.6665C295.733 32.5332 252 39.8667 212.267 55.4666C113.067 94.5332 50.6667 178 35.4667 292C30.8 327.333 30.4 341.733 29.7333 528.267L29.0667 714.667H25.0667C22.9333 714.667 20 715.333 18.5333 716C16.1333 717.333 16 719.467 16 782.4C16 831.2 16.4 847.867 17.6 849.067C18.5333 850 21.4667 850.667 24.2667 850.667H29.3333V911.2V971.867L25.0667 972.267L20.6667 972.667V1107.33V1242L24.9333 1242.4L29.3333 1242.8V1278.67V1314.53L25.0667 1314.93L20.6667 1315.33V1450V1584.67L25.0667 1585.07L29.3333 1585.47V2399.73C29.3333 2847.6 29.7333 3227.47 30 3244C31.6 3315.47 36.9333 3354.53 50.1333 3394.67C80.4 3485.87 151.467 3552 245.6 3576.53C278 3585.07 305.733 3588.53 356.667 3590.67C400.933 3592.4 1373.33 3592.4 1424.4 3590.67C1478.13 3588.8 1506.27 3585.33 1539.73 3576.53C1637.73 3551.07 1710.8 3480.13 1738.67 3383.73C1748.13 3350.53 1752.67 3317.2 1754.67 3265.33C1755.47 3245.6 1756 2906.27 1756 2408.93V1585.33H1759.07C1760.67 1585.33 1762.8 1584.8 1763.73 1584.27C1765.07 1583.33 1765.33 1539.87 1765.07 1371.2L1764.67 1159.33L1760.4 1158.93L1756 1158.53V783.6C1755.87 577.333 1755.33 389.467 1754.67 366C1753.07 306.267 1748.93 273.6 1738.67 237.6C1710.8 141.2 1637.73 70.2666 1539.73 44.8C1501.73 34.8 1476.67 32.1333 1405.33 30.6665C1340.13 29.2 410.8 29.3333 360.667 30.6665ZM1367.73 37.5999L1368.13 41.3333H869.067C552.4 41.3333 360.533 41.8667 344 42.6665C275.333 46.2666 234.133 55.8667 189.333 78.8C141.2 103.467 103.467 141.2 78.8 189.333C53.4667 238.8 44.1333 284.8 41.8667 370.533C41.3333 389.733 40.4 405.733 39.7333 406.133C39.2 406.533 38.6667 411.6 38.6667 417.467C38.6667 433.733 36.5333 429.867 35.6 411.733C32 347.2 37.8667 283.067 51.2 237.2C72.8 163.067 123.333 102.533 191.333 69.3333C227.067 51.8667 262.267 42.5332 312.667 37.2C340.667 34.2666 418.933 33.8667 892 33.8667L1367.33 34L1367.73 37.5999ZM1474 37.3333C1495.2 39.5999 1519.33 43.7334 1536.53 48.1333C1643.6 75.2 1719.2 155.6 1741.2 266C1749.33 306.4 1752.53 361.2 1749.73 411.733C1748.8 429.867 1746.67 433.733 1746.67 417.467C1746.67 411.6 1746.13 406.533 1745.6 406.133C1744.93 405.733 1744 389.6 1743.47 370.4C1741.2 284.667 1731.87 238.8 1706.53 189.333C1669.2 116.533 1601.6 67.7334 1514.67 50.8C1487.87 45.4666 1439.07 41.3333 1403.73 41.3333C1396.8 41.3333 1392 40.8 1392 40C1392 39.2 1387.33 38.6665 1380.67 38.6665C1365.73 38.6665 1366 36.2666 1381.07 35.5999C1400.13 34.6665 1459.6 35.8667 1474 37.3333ZM1428.67 108C1478 109.733 1505.07 113.733 1534.67 123.6C1579.07 138.4 1615.87 166.667 1640.27 204.8C1647.07 215.467 1657.2 237.067 1661.73 250.8C1672.13 281.867 1675.6 308 1677.33 366C1678.93 422.933 1678.93 3198.4 1677.33 3255.33C1675.33 3326 1669.47 3357.73 1651.87 3394.67C1643.87 3411.33 1639.47 3418.53 1628.53 3432.67C1605.6 3462.27 1572.8 3485.07 1534.67 3497.73C1505.07 3507.6 1478 3511.6 1428.67 3513.33C1382.93 3514.93 402.4 3514.93 356.667 3513.33C320.667 3512 298.933 3509.87 277.467 3505.2C226.533 3494.13 185.067 3469.2 156.8 3432.67C145.867 3418.53 141.467 3411.33 133.467 3394.67C115.867 3357.73 110 3326 108 3255.33C106.4 3199.07 106.4 424.8 108 366.667C109.2 322.8 111.067 302 116.133 278.133C126.667 227.867 152.133 185.2 188.667 156.667C202 146.267 207.6 142.8 223.733 134.667C257.2 118 295.6 110 352 108C393.733 106.667 1388.53 106.533 1428.67 108ZM41.3333 1810.53C41.3333 3071.87 41.2 3191.73 39.2 3192.53C38 3192.93 36.5333 3193.07 35.8667 3192.53C35.2 3192.13 34.6667 2638.67 34.6667 1810.53V429.333H38H41.3333V1810.53ZM1750.67 1810.53C1750.67 2638.67 1750.13 3192.13 1749.47 3192.53C1748.8 3193.07 1747.33 3192.93 1746.13 3192.53C1744.13 3191.73 1744 3071.87 1744 1810.53V429.333H1747.33H1750.67V1810.53ZM29.3333 723.467C29.3333 725.867 28.5333 726.533 25.0667 726.933L20.6667 727.333V783.333V839.333L25.0667 839.733C28.8 840.133 29.4667 840.667 29.0667 843.067C28.8 845.333 27.6 846.133 24.2667 846.4C20.6667 846.8 19.7333 846.267 18.6667 843.333C17.2 839.6 16.8 728.267 18.1333 723.067C19.6 717.867 29.3333 718.133 29.3333 723.467ZM29.0667 982.133C30.9333 985.333 29.3333 990.667 26.6667 990.667C25.3333 990.667 24 992 23.4667 993.6C22.4 997.867 22.6667 1220.13 23.7333 1222.67C24.2667 1223.73 25.6 1224.67 26.6667 1224.67C29.3333 1224.67 30.2667 1234 27.6 1235.07C21.8667 1237.2 22 1240.13 21.7333 1109.2C21.4667 1026.53 21.8667 984.267 22.6667 982.533C24.4 979.467 27.4667 979.2 29.0667 982.133ZM1762.8 1170C1764 1175.2 1764 1568.8 1762.8 1574C1762.13 1577.2 1761.2 1578 1758.67 1578C1755.87 1578 1755.2 1577.33 1754.93 1573.6C1754.53 1570 1755.07 1569.07 1757.87 1568L1761.33 1566.67V1372.13V1177.6L1758 1175.47C1754.8 1173.33 1753.47 1168.27 1755.6 1166.13C1757.87 1163.87 1762 1166.13 1762.8 1170ZM29.6 1325.07C30.5333 1328.4 28.4 1333.33 26.1333 1333.33C25.2 1333.33 24 1334.67 23.4667 1336.27C22.4 1340.67 22.6667 1562.8 23.8667 1565.73C24.4 1567.07 25.2 1568.13 25.7333 1568.13C28.8 1567.73 29.3333 1568.4 29.3333 1572.67C29.3333 1576.67 28.9333 1577.33 26.1333 1577.33C23.4667 1577.33 22.9333 1576.53 22.1333 1570.93C21.0667 1563.2 21.0667 1329.73 22.1333 1325.6C23.2 1322 28.6667 1321.47 29.6 1325.07ZM41.3333 3238.27C41.4667 3318.53 51.6 3376.4 73.6 3422.8C114.8 3509.2 191.733 3561.87 296.667 3575.2C318.267 3578 351.2 3580 374.267 3580H393.333V3583.6V3587.07L362.4 3586.27C329.6 3585.33 309.2 3583.73 287.333 3580.53C185.867 3565.6 110.533 3513.07 69.3333 3428.67C46 3381.07 37.0667 3334.8 35.0667 3253.6L34.2667 3216H37.7333H41.3333V3238.27ZM1750.27 3253.6C1748.27 3334.8 1739.33 3381.07 1716 3428.67C1688.53 3484.93 1646.93 3526.27 1590 3553.47C1556.53 3569.47 1523.47 3578 1470 3584.27C1460.13 3585.33 1323.87 3585.87 936.933 3586.27L417.2 3586.67L417.6 3583.73L418 3580.67L938.667 3579.87C1225.07 3579.33 1462 3578.67 1465.33 3578.13C1468.67 3577.6 1478.8 3576.27 1488 3575.2C1592.53 3562.53 1670.4 3509.47 1711.73 3422.8C1733.73 3376.4 1743.87 3318.53 1744 3238.27V3216H1747.6H1751.07L1750.27 3253.6Z" fill="black"/>
<path d="M708.667 152C690.534 154 676 160.933 663.334 173.867C649.2 188.267 642.667 204.667 642.667 225.333C642.667 246.533 649.334 262.533 664.134 277.467C673.6 287.067 686.267 294.133 700 297.467C706 299.067 740.934 299.333 892.667 299.333C1044.4 299.333 1079.33 299.067 1085.33 297.467C1112.27 290.933 1134 270 1140.67 244.667C1143.2 234.533 1143.2 216.133 1140.67 206C1134.27 181.467 1114.4 161.733 1088 153.733C1081.33 151.6 1064.53 151.467 899.334 151.2C799.6 151.067 713.867 151.467 708.667 152Z" fill="black"/>
</svg>
